<svg xmlns="http://www.w3.org/2000/svg" viewBox="0 0 216 216" enable-background="new 0 0 216 216"><pattern width="120" height="123" patternUnits="userSpaceOnUse" viewBox="0 -153.8 120 123" overflow="visible"><path fill="none" d="M0-153.8h120v123h-120z"/><path fill="#212011" d="M119.9-61.5h-119.9v61.5h119.9z"/><path fill="#F4EB1F" d="M120-41.2h-120v-11h120zM120-19.4h-120v-12h120z"/><path fill="#212011" d="M119.9-123h-119.9v61.5h119.9z"/><path fill="#F4EB1F" d="M120-102.7h-120v-11h120zM120-80.8h-120v-12h120zM120-61.5h-120v-10.5h120z"/><path fill="#212011" d="M119.9-184.5h-119.9v61.5h119.9z"/><path fill="#F4EB1F" d="M120-142.4h-120v-12h120zM120-123h-120v-10.5h120z"/></pattern><path stroke="#231F20" stroke-miterlimit="10" d="M98 43.1c.7-5-1.6-10.1-5.2-13.7-3.6-3.6-8.3-5.8-13-7.6M118.4 44.8c.8-4.1 1.7-8.2 3.7-11.9s5.5-6.7 9.6-7.2" fill="none"/><path fill="#BAD6DD" d="M88.2 84.5s-27.6-74-58.8-41.5 32.2 56 48.3 59.5 13.7-10.5 10.5-18zM131 79s30-74 64-41.5-35 56-52.5 59.5-15-10.5-11.5-18z"/><ellipse fill="url(#SVGID_1_)" cx="108.5" cy="113.2" rx="38.5" ry="42.2"/><ellipse fill="#F4EB1F" cx="108.8" cy="58.2" rx="25.8" ry="22.2"/><ellipse cx="78.4" cy="20.9" rx="2.9" ry="3.1"/><ellipse cx="134.1" cy="25.4" rx="2.9" ry="3.1"/><path d="M101.5 153.5l5.5 12.5 6.5-13z"/><circle fill="#FAFDFD" cx="103.4" cy="53.9" r="6.6"/><ellipse fill="#FAFDFD" cx="118.2" cy="55.4" rx="5" ry="5.1"/><ellipse fill="#020303" cx="104.1" cy="54.2" rx="1.7" ry="1.8"/><circle fill="#020303" cx="118.4" cy="56.1" r="1.4"/><g fill="#090F18"><path d="M38.6 190.7v-16.6h5.6c.9 0 1.7.1 2.3.3.7.2 1.2.5 1.6.9.4.4.7.8.9 1.3.2.5.3 1.1.3 1.7 0 .6-.1 1.1-.2 1.5s-.3.8-.6 1.1c-.2.3-.5.5-.8.7-.3.2-.6.3-.9.3 1.1.2 1.9.6 2.4 1.4.5.7.8 1.7.8 2.8 0 .9-.1 1.6-.4 2.2-.3.6-.6 1.1-1.1 1.4-.4.4-1 .6-1.6.8-.6.2-1.3.2-2.1.2h-6.2zm1.4-9.3h3.7c.8 0 1.4-.1 1.9-.2s.9-.3 1.3-.6c.3-.3.5-.6.7-1 .1-.4.2-.8.2-1.3s-.1-1-.2-1.3c-.2-.4-.4-.7-.8-.9-.3-.2-.8-.4-1.4-.5-.6-.1-1.2-.1-2.1-.1h-3.3v5.9zm0 7.9h3.8c.8 0 1.5 0 2.1-.1.6-.1 1.1-.2 1.5-.5.4-.2.7-.6.9-1 .2-.4.3-1 .3-1.7s-.1-1.2-.3-1.7c-.2-.4-.5-.7-.9-1-.4-.2-.9-.4-1.5-.5-.6-.1-1.2-.1-1.9-.1h-4v6.6zM53.6 185c0 .6.1 1.3.2 1.8.2.6.4 1.1.7 1.5.3.4.7.8 1.2 1 .5.3 1 .4 1.7.4.9 0 1.6-.2 2.2-.7s1-1.2 1.2-2h1.5c-.2.6-.4 1.1-.6 1.6-.3.5-.6.9-1 1.3s-.9.6-1.4.8c-.5.2-1.2.3-1.9.3-.9 0-1.7-.2-2.3-.5-.7-.3-1.2-.8-1.6-1.3-.4-.6-.7-1.2-.9-2-.2-.8-.3-1.6-.3-2.4s.1-1.7.4-2.5c.2-.8.6-1.4 1-2 .4-.6 1-1 1.6-1.4.6-.3 1.4-.5 2.2-.5 1.5 0 2.8.6 3.6 1.7.9 1.1 1.3 2.8 1.3 4.9h-8.8zm7.4-1.1c0-.6-.1-1.1-.2-1.6-.2-.5-.4-1-.7-1.3-.3-.4-.7-.7-1.1-.9-.4-.2-1-.3-1.5-.3s-1.1.1-1.5.3c-.4.2-.8.5-1.1.9-.3.4-.6.8-.7 1.3-.2.5-.3 1-.4 1.6h7.2zM65.7 185c0 .6.1 1.3.2 1.8.2.6.4 1.1.7 1.5.3.4.7.8 1.2 1s1 .4 1.7.4c.9 0 1.6-.2 2.2-.7.6-.5 1-1.2 1.2-2h1.5c-.2.6-.4 1.1-.6 1.6-.3.5-.6.9-1 1.3s-.9.6-1.4.8c-.5.2-1.2.3-1.9.3-.9 0-1.7-.2-2.3-.5-.7-.3-1.2-.8-1.6-1.3-.4-.6-.7-1.2-.9-2-.2-.8-.3-1.6-.3-2.4s.1-1.7.4-2.5c.2-.8.6-1.4 1-2 .4-.6 1-1 1.6-1.4s1.4-.5 2.2-.5c1.5 0 2.8.6 3.6 1.7.9 1.1 1.3 2.8 1.3 4.9h-8.8zm7.4-1.1c0-.6-.1-1.1-.2-1.6-.2-.5-.4-1-.7-1.3-.3-.4-.7-.7-1.1-.9-.4-.2-1-.3-1.5-.3s-1.1.1-1.5.3c-.4.2-.8.5-1.1.9-.3.4-.6.8-.7 1.3-.2.5-.3 1-.4 1.6h7.2zM78.7 176.8c0 .7-.1 1.2-.4 1.6-.3.4-.7.7-1.1.8v-.9c.2-.1.3-.3.5-.5s.2-.6.2-1v-.8h-.7v-2h1.6v2.8zM82.6 186.9c.2 1 .6 1.8 1.1 2.2.5.4 1.3.6 2.3.6.5 0 .9-.1 1.2-.2.3-.1.6-.3.9-.5.2-.2.4-.4.5-.7.1-.3.2-.5.2-.8 0-.6-.2-1-.5-1.3-.4-.3-.8-.5-1.3-.7-.5-.2-1.1-.3-1.7-.4-.6-.1-1.2-.3-1.7-.5s-1-.6-1.3-1c-.4-.4-.5-1-.5-1.8 0-1 .3-1.8 1-2.4.7-.6 1.7-1 2.9-1s2.2.3 3 .9c.8.6 1.2 1.5 1.4 2.9h-1.3c-.1-.9-.4-1.6-1-1.9-.5-.4-1.2-.6-2.1-.6-.8 0-1.5.2-1.9.6-.4.4-.7.9-.7 1.5 0 .5.2.9.5 1.2.4.3.8.5 1.3.7.5.2 1.1.3 1.7.5.6.1 1.2.3 1.7.6s1 .6 1.3 1c.4.4.5 1 .5 1.8 0 .6-.1 1.1-.3 1.5-.2.4-.6.8-1 1.1-.4.3-.9.5-1.4.7-.6.1-1.2.2-1.8.2-.7 0-1.3-.1-1.8-.3-.5-.2-1-.5-1.3-.9-.4-.4-.6-.8-.8-1.3-.2-.5-.3-1-.3-1.6h1.2zM110 178.9c-.3-1.4-.9-2.4-1.7-3-.8-.6-1.9-.9-3.2-.9-.9 0-1.8.2-2.4.6-.7.4-1.2.9-1.7 1.6-.4.7-.8 1.5-1 2.3-.2.9-.3 1.8-.3 2.8 0 .9.1 1.8.3 2.7.2.9.5 1.7.9 2.4s1 1.3 1.7 1.7c.7.4 1.6.6 2.7.6.7 0 1.3-.1 1.8-.3.6-.2 1-.5 1.4-1 .4-.4.8-.9 1-1.4.3-.6.5-1.2.6-1.8h1.5c-.2.8-.4 1.6-.8 2.3-.3.7-.8 1.3-1.3 1.9-.5.5-1.2 1-2 1.3-.8.3-1.7.5-2.7.5-1.2 0-2.2-.2-3.1-.7-.9-.5-1.6-1.1-2.1-1.9-.5-.8-.9-1.7-1.2-2.8-.2-1-.4-2.2-.4-3.3 0-1.6.2-2.9.6-4 .4-1.1.9-2 1.5-2.7.7-.7 1.4-1.2 2.3-1.5.9-.3 1.8-.5 2.9-.5.8 0 1.5.1 2.2.3.7.2 1.3.6 1.8 1s1 1 1.3 1.6c.3.7.6 1.4.7 2.3h-1.3zM119.5 183.7c.2 0 .5-.1.9-.1.3-.1.6-.1.8-.3.2-.1.4-.3.4-.5.1-.3.1-.5.1-.7 0-.7-.2-1.3-.6-1.7-.4-.5-1.1-.7-2.2-.7-.4 0-.9 0-1.2.1-.4.1-.7.2-1 .4-.3.2-.5.5-.7.8-.2.3-.3.8-.4 1.3h-1.3c0-.7.2-1.3.5-1.8s.6-.9 1-1.2c.4-.3.9-.5 1.4-.7s1.1-.2 1.7-.2c.6 0 1.1.1 1.6.2s.9.3 1.3.6.7.7.9 1.1c.2.5.3 1.1.3 1.7v6.5c0 .5.1.9.3 1 .2.1.5.1 1.1-.1v1.1c-.1 0-.2.1-.4.1s-.4.1-.6.1c-.2 0-.4 0-.6-.1-.2 0-.4-.1-.5-.2l-.3-.4-.2-.5v-.6c-.5.6-1.2 1.1-1.9 1.5-.7.3-1.5.5-2.3.5-.5 0-1-.1-1.4-.2-.5-.1-.9-.4-1.2-.6-.3-.3-.6-.6-.8-1.1s-.3-.9-.3-1.5c0-2 1.3-3.2 3.9-3.6l1.7-.2zm2.2.7c-.6.2-1.1.4-1.7.5l-1.7.2c-1 .1-1.8.3-2.3.7-.6.4-.8 1-.8 1.8 0 .4.1.7.2 1 .1.3.3.5.5.7.2.2.5.3.8.4.3.1.6.1.9.1.5 0 1-.1 1.5-.2s.9-.3 1.3-.6.7-.6.9-1.1c.2-.4.3-1 .3-1.6v-1.9zM127.7 190.7h-1.3v-11.9h1.3v1.7c.5-.6 1.1-1.1 1.6-1.4.6-.4 1.2-.6 2-.6.7 0 1.3.1 1.9.4.6.3 1.1.7 1.5 1.3.3.4.4.9.5 1.3.1.5.1.9.1 1.4v7.8h-1.3v-7.8c0-1.1-.2-1.9-.7-2.4-.4-.5-1.2-.8-2.2-.8-.4 0-.8.1-1.1.2-.3.1-.6.3-.9.5-.3.2-.5.5-.7.7-.2.3-.3.6-.4.9-.1.4-.2.8-.2 1.1v7.6000000000000005zM147.2 174.1h1.3v16.6h-1.3v-2.1c-.2.4-.4.7-.7 1-.3.3-.6.5-1 .7-.4.2-.7.4-1.1.5-.4.1-.7.2-1.1.2-.9 0-1.7-.2-2.3-.5s-1.2-.8-1.6-1.3c-.4-.6-.7-1.2-.9-2-.2-.8-.3-1.6-.3-2.5 0-.8.1-1.6.3-2.4.2-.8.5-1.4.9-2 .4-.6.9-1 1.6-1.4.6-.3 1.4-.5 2.2-.5.8 0 1.6.2 2.3.6.7.4 1.3.9 1.7 1.7v-6.6zm0 10.6c0-.7-.1-1.3-.3-1.9-.2-.6-.4-1.1-.7-1.6-.3-.5-.7-.8-1.2-1.1-.5-.3-1-.4-1.6-.4-.7 0-1.3.1-1.8.4-.5.3-.9.7-1.2 1.2-.3.5-.6 1.1-.7 1.7-.1.7-.2 1.4-.2 2.1 0 .8.1 1.4.3 2s.5 1.1.8 1.5c.3.4.8.7 1.2.9.5.2 1 .3 1.5.3.6 0 1.2-.1 1.6-.4.5-.3.9-.6 1.2-1.1.3-.5.6-1 .7-1.6.3-.7.4-1.3.4-2zM152 190.7v-16.6h1.3v16.6h-1.3zM157.4 185c0 .6.1 1.3.2 1.8.2.6.4 1.1.7 1.5.3.4.7.8 1.2 1s1 .4 1.7.4c.9 0 1.6-.2 2.2-.7s1-1.2 1.2-2h1.5c-.2.6-.4 1.1-.6 1.6-.3.5-.6.9-1 1.3s-.9.6-1.4.8c-.5.2-1.2.3-1.9.3-.9 0-1.7-.2-2.3-.5-.7-.3-1.2-.8-1.6-1.3-.4-.6-.7-1.2-.9-2-.2-.8-.3-1.6-.3-2.4s.1-1.7.4-2.5c.2-.8.6-1.4 1-2s1-1 1.6-1.4 1.4-.5 2.2-.5c1.5 0 2.8.6 3.6 1.7.9 1.1 1.3 2.8 1.3 4.9h-8.8zm7.3-1.1c0-.6-.1-1.1-.2-1.6-.2-.5-.4-1-.7-1.3-.3-.4-.7-.7-1.1-.9-.4-.2-1-.3-1.5-.3s-1.1.1-1.5.3c-.4.2-.8.5-1.1.9-.3.4-.6.8-.7 1.3-.2.5-.3 1-.4 1.6h7.2zM169.4 186.9c.2 1 .6 1.8 1.1 2.2.5.4 1.3.6 2.3.6.5 0 .9-.1 1.2-.2.3-.1.6-.3.9-.5.2-.2.4-.4.5-.7.1-.3.2-.5.2-.8 0-.6-.2-1-.5-1.3-.4-.3-.8-.5-1.3-.7-.5-.2-1.1-.3-1.7-.4-.6-.1-1.2-.3-1.7-.5s-1-.6-1.3-1c-.4-.4-.5-1-.5-1.8 0-1 .3-1.8 1-2.4.7-.6 1.7-1 2.9-1s2.2.3 3 .9c.8.6 1.2 1.5 1.4 2.9h-1.3c-.1-.9-.4-1.6-1-1.9-.5-.4-1.2-.6-2.1-.6-.8 0-1.5.2-1.9.6-.4.4-.7.9-.7 1.5 0 .5.2.9.5 1.2.4.3.8.5 1.3.7.5.2 1.1.3 1.7.5.6.1 1.2.3 1.7.6s1 .6 1.3 1c.4.4.5 1 .5 1.8 0 .6-.1 1.1-.3 1.5-.2.4-.6.8-1 1.1-.4.3-.9.5-1.4.7-.6.1-1.2.2-1.8.2s-1.3-.1-1.8-.3c-.5-.2-1-.5-1.3-.9-.4-.4-.6-.8-.8-1.3-.2-.5-.3-1-.3-1.6h1.2z"/></g></svg>