<?xml version="1.0" encoding="utf-8"?>
<!-- Generator: Adobe Illustrator 17.1.0, SVG Export Plug-In . SVG Version: 6.00 Build 0)  -->
<!DOCTYPE svg PUBLIC "-//W3C//DTD SVG 1.1//EN" "http://www.w3.org/Graphics/SVG/1.1/DTD/svg11.dtd">
<svg version="1.1" id="Layer_1" xmlns="http://www.w3.org/2000/svg" xmlns:xlink="http://www.w3.org/1999/xlink" x="0px" y="0px"
	 viewBox="0 0 216 216" enable-background="new 0 0 216 216" xml:space="preserve">
<pattern  width="120" height="123" patternUnits="userSpaceOnUse" id="New_Pattern" viewBox="0 -153.8 120 123" overflow="visible">
	<g>
		<polygon fill="none" points="0,-153.8 120,-153.8 120,-30.8 0,-30.8 		"/>
		<g>
			<polygon fill="#212011" points="119.9,-61.5 0,-61.5 0,0 119.9,0 			"/>
			<polygon fill="#F4EB1F" points="120,-41.2 0,-41.2 0,-52.2 120,-52.2 			"/>
			<polygon fill="#F4EB1F" points="120,-19.4 0,-19.4 0,-31.4 120,-31.4 			"/>
		</g>
		<g>
			<polygon fill="#212011" points="119.9,-123 0,-123 0,-61.5 119.9,-61.5 			"/>
			<polygon fill="#F4EB1F" points="120,-102.7 0,-102.7 0,-113.7 120,-113.7 			"/>
			<polygon fill="#F4EB1F" points="120,-80.8 0,-80.8 0,-92.8 120,-92.8 			"/>
			<polygon fill="#F4EB1F" points="120,-61.5 0,-61.5 0,-72 120,-72 			"/>
		</g>
		<g>
			<polygon fill="#212011" points="119.9,-184.5 0,-184.5 0,-123 119.9,-123 			"/>
			<polygon fill="#F4EB1F" points="120,-142.4 0,-142.4 0,-154.4 120,-154.4 			"/>
			<polygon fill="#F4EB1F" points="120,-123 0,-123 0,-133.5 120,-133.5 			"/>
		</g>
	</g>
</pattern>
<path fill="none" stroke="#231F20" stroke-miterlimit="10" d="M98,43.1c0.7-5-1.6-10.1-5.2-13.7c-3.6-3.6-8.3-5.8-13-7.6"/>
<path fill="none" stroke="#231F20" stroke-miterlimit="10" d="M118.4,44.8c0.8-4.1,1.7-8.2,3.7-11.9s5.5-6.7,9.6-7.2"/>
<path fill="#BAD6DD" d="M88.2,84.5c0,0-27.6-74-58.8-41.5s32.2,56,48.3,59.5S91.4,92,88.2,84.5z"/>
<path fill="#BAD6DD" d="M131,79c0,0,30-74,64-41.5s-35,56-52.5,59.5S127.5,86.5,131,79z"/>
<pattern  id="SVGID_1_" xlink:href="#New_Pattern" patternTransform="matrix(1 0 0 1 -113 14)">
</pattern>
<ellipse fill="url(#SVGID_1_)" cx="108.5" cy="113.2" rx="38.5" ry="42.2"/>
<ellipse fill="#F4EB1F" cx="108.8" cy="58.2" rx="25.8" ry="22.2"/>
<ellipse cx="78.4" cy="20.9" rx="2.9" ry="3.1"/>
<ellipse cx="134.1" cy="25.4" rx="2.9" ry="3.1"/>
<polygon points="101.5,153.5 107,166 113.5,153 "/>
<circle fill="#FAFDFD" cx="103.4" cy="53.9" r="6.6"/>
<ellipse fill="#FAFDFD" cx="118.2" cy="55.4" rx="5" ry="5.1"/>
<ellipse fill="#020303" cx="104.1" cy="54.2" rx="1.7" ry="1.8"/>
<circle fill="#020303" cx="118.4" cy="56.1" r="1.4"/>
<g>
	<path fill="#090F18" d="M38.6,190.7v-16.6h5.6c0.9,0,1.7,0.1,2.3,0.3c0.7,0.2,1.2,0.5,1.6,0.9c0.4,0.4,0.7,0.8,0.9,1.3
		c0.2,0.5,0.3,1.1,0.3,1.7c0,0.6-0.1,1.1-0.2,1.5s-0.3,0.8-0.6,1.1c-0.2,0.3-0.5,0.5-0.8,0.7c-0.3,0.2-0.6,0.3-0.9,0.3v0
		c1.1,0.2,1.9,0.6,2.4,1.4c0.5,0.7,0.8,1.7,0.8,2.8c0,0.9-0.1,1.6-0.4,2.2c-0.3,0.6-0.6,1.1-1.1,1.4c-0.4,0.4-1,0.6-1.6,0.8
		c-0.6,0.2-1.3,0.2-2.1,0.2H38.6z M40,181.4h3.7c0.8,0,1.4-0.1,1.9-0.2c0.5-0.1,0.9-0.3,1.3-0.6c0.3-0.3,0.5-0.6,0.7-1
		c0.1-0.4,0.2-0.8,0.2-1.3c0-0.5-0.1-1-0.2-1.3c-0.2-0.4-0.4-0.7-0.8-0.9c-0.3-0.2-0.8-0.4-1.4-0.5c-0.6-0.1-1.2-0.1-2.1-0.1H40
		V181.4z M40,189.3h3.8c0.8,0,1.5,0,2.1-0.1c0.6-0.1,1.1-0.2,1.5-0.5c0.4-0.2,0.7-0.6,0.9-1c0.2-0.4,0.3-1,0.3-1.7
		c0-0.7-0.1-1.2-0.3-1.7c-0.2-0.4-0.5-0.7-0.9-1c-0.4-0.2-0.9-0.4-1.5-0.5c-0.6-0.1-1.2-0.1-1.9-0.1H40V189.3z"/>
	<path fill="#090F18" d="M53.6,185c0,0.6,0.1,1.3,0.2,1.8c0.2,0.6,0.4,1.1,0.7,1.5c0.3,0.4,0.7,0.8,1.2,1c0.5,0.3,1,0.4,1.7,0.4
		c0.9,0,1.6-0.2,2.2-0.7s1-1.2,1.2-2h1.5c-0.2,0.6-0.4,1.1-0.6,1.6c-0.3,0.5-0.6,0.9-1,1.3c-0.4,0.4-0.9,0.6-1.4,0.8
		c-0.5,0.2-1.2,0.3-1.9,0.3c-0.9,0-1.7-0.2-2.3-0.5c-0.7-0.3-1.2-0.8-1.6-1.3c-0.4-0.6-0.7-1.2-0.9-2c-0.2-0.8-0.3-1.6-0.3-2.4
		s0.1-1.7,0.4-2.5c0.2-0.8,0.6-1.4,1-2c0.4-0.6,1-1,1.6-1.4c0.6-0.3,1.4-0.5,2.2-0.5c1.5,0,2.8,0.6,3.6,1.7c0.9,1.1,1.3,2.8,1.3,4.9
		H53.6z M61,183.9c0-0.6-0.1-1.1-0.2-1.6c-0.2-0.5-0.4-1-0.7-1.3c-0.3-0.4-0.7-0.7-1.1-0.9c-0.4-0.2-1-0.3-1.5-0.3s-1.1,0.1-1.5,0.3
		c-0.4,0.2-0.8,0.5-1.1,0.9c-0.3,0.4-0.6,0.8-0.7,1.3c-0.2,0.5-0.3,1-0.4,1.6H61z"/>
	<path fill="#090F18" d="M65.7,185c0,0.6,0.1,1.3,0.2,1.8c0.2,0.6,0.4,1.1,0.7,1.5c0.3,0.4,0.7,0.8,1.2,1s1,0.4,1.7,0.4
		c0.9,0,1.6-0.2,2.2-0.7c0.6-0.5,1-1.2,1.2-2h1.5c-0.2,0.6-0.4,1.1-0.6,1.6c-0.3,0.5-0.6,0.9-1,1.3c-0.4,0.4-0.9,0.6-1.4,0.8
		c-0.5,0.2-1.2,0.3-1.9,0.3c-0.9,0-1.7-0.2-2.3-0.5c-0.7-0.3-1.2-0.8-1.6-1.3c-0.4-0.6-0.7-1.2-0.9-2c-0.2-0.8-0.3-1.6-0.3-2.4
		s0.1-1.7,0.4-2.5c0.2-0.8,0.6-1.4,1-2c0.4-0.6,1-1,1.6-1.4s1.4-0.5,2.2-0.5c1.5,0,2.8,0.6,3.6,1.7c0.9,1.1,1.3,2.8,1.3,4.9H65.7z
		 M73.1,183.9c0-0.6-0.1-1.1-0.2-1.6c-0.2-0.5-0.4-1-0.7-1.3c-0.3-0.4-0.7-0.7-1.1-0.9c-0.4-0.2-1-0.3-1.5-0.3s-1.1,0.1-1.5,0.3
		c-0.4,0.2-0.8,0.5-1.1,0.9c-0.3,0.4-0.6,0.8-0.7,1.3c-0.2,0.5-0.3,1-0.4,1.6H73.1z"/>
	<path fill="#090F18" d="M78.7,176.8c0,0.7-0.1,1.2-0.4,1.6c-0.3,0.4-0.7,0.7-1.1,0.8v-0.9c0.2-0.1,0.3-0.3,0.5-0.5
		c0.2-0.2,0.2-0.6,0.2-1v-0.8h-0.7v-2h1.6V176.8z"/>
	<path fill="#090F18" d="M82.6,186.9c0.2,1,0.6,1.8,1.1,2.2c0.5,0.4,1.3,0.6,2.3,0.6c0.5,0,0.9-0.1,1.2-0.2c0.3-0.1,0.6-0.3,0.9-0.5
		c0.2-0.2,0.4-0.4,0.5-0.7c0.1-0.3,0.2-0.5,0.2-0.8c0-0.6-0.2-1-0.5-1.3c-0.4-0.3-0.8-0.5-1.3-0.7c-0.5-0.2-1.1-0.3-1.7-0.4
		c-0.6-0.1-1.2-0.3-1.7-0.5c-0.5-0.2-1-0.6-1.3-1c-0.4-0.4-0.5-1-0.5-1.8c0-1,0.3-1.8,1-2.4c0.7-0.6,1.7-1,2.9-1
		c1.2,0,2.2,0.3,3,0.9c0.8,0.6,1.2,1.5,1.4,2.9h-1.3c-0.1-0.9-0.4-1.6-1-1.9c-0.5-0.4-1.2-0.6-2.1-0.6c-0.8,0-1.5,0.2-1.9,0.6
		c-0.4,0.4-0.7,0.9-0.7,1.5c0,0.5,0.2,0.9,0.5,1.2c0.4,0.3,0.8,0.5,1.3,0.7c0.5,0.2,1.1,0.3,1.7,0.5c0.6,0.1,1.2,0.3,1.7,0.6
		c0.5,0.3,1,0.6,1.3,1c0.4,0.4,0.5,1,0.5,1.8c0,0.6-0.1,1.1-0.3,1.5c-0.2,0.4-0.6,0.8-1,1.1c-0.4,0.3-0.9,0.5-1.4,0.7
		c-0.6,0.1-1.2,0.2-1.8,0.2c-0.7,0-1.3-0.1-1.8-0.3c-0.5-0.2-1-0.5-1.3-0.9c-0.4-0.4-0.6-0.8-0.8-1.3c-0.2-0.5-0.3-1-0.3-1.6H82.6z"
		/>
	<path fill="#090F18" d="M110,178.9c-0.3-1.4-0.9-2.4-1.7-3c-0.8-0.6-1.9-0.9-3.2-0.9c-0.9,0-1.8,0.2-2.4,0.6
		c-0.7,0.4-1.2,0.9-1.7,1.6c-0.4,0.7-0.8,1.5-1,2.3c-0.2,0.9-0.3,1.8-0.3,2.8c0,0.9,0.1,1.8,0.3,2.7c0.2,0.9,0.5,1.7,0.9,2.4
		c0.4,0.7,1,1.3,1.7,1.7c0.7,0.4,1.6,0.6,2.7,0.6c0.7,0,1.3-0.1,1.8-0.3c0.6-0.2,1-0.5,1.4-1c0.4-0.4,0.8-0.9,1-1.4
		c0.3-0.6,0.5-1.2,0.6-1.8h1.5c-0.2,0.8-0.4,1.6-0.8,2.3c-0.3,0.7-0.8,1.3-1.3,1.9c-0.5,0.5-1.2,1-2,1.3c-0.8,0.3-1.7,0.5-2.7,0.5
		c-1.2,0-2.2-0.2-3.1-0.7c-0.9-0.5-1.6-1.1-2.1-1.9c-0.5-0.8-0.9-1.7-1.2-2.8c-0.2-1-0.4-2.2-0.4-3.3c0-1.6,0.2-2.9,0.6-4
		c0.4-1.1,0.9-2,1.5-2.7c0.7-0.7,1.4-1.2,2.3-1.5c0.9-0.3,1.8-0.5,2.9-0.5c0.8,0,1.5,0.1,2.2,0.3c0.7,0.2,1.3,0.6,1.8,1
		c0.5,0.4,1,1,1.3,1.6c0.3,0.7,0.6,1.4,0.7,2.3H110z"/>
	<path fill="#090F18" d="M119.5,183.7c0.2,0,0.5-0.1,0.9-0.1c0.3-0.1,0.6-0.1,0.8-0.3c0.2-0.1,0.4-0.3,0.4-0.5
		c0.1-0.3,0.1-0.5,0.1-0.7c0-0.7-0.2-1.3-0.6-1.7c-0.4-0.5-1.1-0.7-2.2-0.7c-0.4,0-0.9,0-1.2,0.1c-0.4,0.1-0.7,0.2-1,0.4
		c-0.3,0.2-0.5,0.5-0.7,0.8c-0.2,0.3-0.3,0.8-0.4,1.3h-1.3c0-0.7,0.2-1.3,0.5-1.8c0.3-0.5,0.6-0.9,1-1.2c0.4-0.3,0.9-0.5,1.4-0.7
		s1.1-0.2,1.7-0.2c0.6,0,1.1,0.1,1.6,0.2c0.5,0.1,0.9,0.3,1.3,0.6c0.4,0.3,0.7,0.7,0.9,1.1c0.2,0.5,0.3,1.1,0.3,1.7v6.5
		c0,0.5,0.1,0.9,0.3,1c0.2,0.1,0.5,0.1,1.1-0.1v1.1c-0.1,0-0.2,0.1-0.4,0.1s-0.4,0.1-0.6,0.1c-0.2,0-0.4,0-0.6-0.1
		c-0.2,0-0.4-0.1-0.5-0.2c-0.1-0.1-0.2-0.3-0.3-0.4c-0.1-0.2-0.1-0.3-0.2-0.5c0-0.2,0-0.4,0-0.6c-0.5,0.6-1.2,1.1-1.9,1.5
		c-0.7,0.3-1.5,0.5-2.3,0.5c-0.5,0-1-0.1-1.4-0.2c-0.5-0.1-0.9-0.4-1.2-0.6c-0.3-0.3-0.6-0.6-0.8-1.1s-0.3-0.9-0.3-1.5
		c0-2,1.3-3.2,3.9-3.6L119.5,183.7z M121.7,184.4c-0.6,0.2-1.1,0.4-1.7,0.5c-0.6,0.1-1.1,0.1-1.7,0.2c-1,0.1-1.8,0.3-2.3,0.7
		c-0.6,0.4-0.8,1-0.8,1.8c0,0.4,0.1,0.7,0.2,1c0.1,0.3,0.3,0.5,0.5,0.7c0.2,0.2,0.5,0.3,0.8,0.4c0.3,0.1,0.6,0.1,0.9,0.1
		c0.5,0,1-0.1,1.5-0.2s0.9-0.3,1.3-0.6c0.4-0.3,0.7-0.6,0.9-1.1c0.2-0.4,0.3-1,0.3-1.6V184.4z"/>
	<path fill="#090F18" d="M127.7,190.7h-1.3v-11.9h1.3v1.7c0.5-0.6,1.1-1.1,1.6-1.4c0.6-0.4,1.2-0.6,2-0.6c0.7,0,1.3,0.1,1.9,0.4
		c0.6,0.3,1.1,0.7,1.5,1.3c0.3,0.4,0.4,0.9,0.5,1.3c0.1,0.5,0.1,0.9,0.1,1.4v7.8h-1.3v-7.8c0-1.1-0.2-1.9-0.7-2.4
		c-0.4-0.5-1.2-0.8-2.2-0.8c-0.4,0-0.8,0.1-1.1,0.2c-0.3,0.1-0.6,0.3-0.9,0.5c-0.3,0.2-0.5,0.5-0.7,0.7c-0.2,0.3-0.3,0.6-0.4,0.9
		c-0.1,0.4-0.2,0.8-0.2,1.1c0,0.4,0,0.7,0,1.2V190.7z"/>
	<path fill="#090F18" d="M147.2,174.1h1.3v16.6h-1.3v-2.1h0c-0.2,0.4-0.4,0.7-0.7,1c-0.3,0.3-0.6,0.5-1,0.7
		c-0.4,0.2-0.7,0.4-1.1,0.5c-0.4,0.1-0.7,0.2-1.1,0.2c-0.9,0-1.7-0.2-2.3-0.5s-1.2-0.8-1.6-1.3c-0.4-0.6-0.7-1.2-0.9-2
		c-0.2-0.8-0.3-1.6-0.3-2.5c0-0.8,0.1-1.6,0.3-2.4c0.2-0.8,0.5-1.4,0.9-2c0.4-0.6,0.9-1,1.6-1.4c0.6-0.3,1.4-0.5,2.2-0.5
		c0.8,0,1.6,0.2,2.3,0.6c0.7,0.4,1.3,0.9,1.7,1.7V174.1z M147.2,184.7c0-0.7-0.1-1.3-0.3-1.9c-0.2-0.6-0.4-1.1-0.7-1.6
		c-0.3-0.5-0.7-0.8-1.2-1.1c-0.5-0.3-1-0.4-1.6-0.4c-0.7,0-1.3,0.1-1.8,0.4c-0.5,0.3-0.9,0.7-1.2,1.2c-0.3,0.5-0.6,1.1-0.7,1.7
		c-0.1,0.7-0.2,1.4-0.2,2.1c0,0.8,0.1,1.4,0.3,2s0.5,1.1,0.8,1.5c0.3,0.4,0.8,0.7,1.2,0.9c0.5,0.2,1,0.3,1.5,0.3
		c0.6,0,1.2-0.1,1.6-0.4c0.5-0.3,0.9-0.6,1.2-1.1c0.3-0.5,0.6-1,0.7-1.6C147.1,186,147.2,185.4,147.2,184.7z"/>
	<path fill="#090F18" d="M152,190.7v-16.6h1.3v16.6H152z"/>
	<path fill="#090F18" d="M157.4,185c0,0.6,0.1,1.3,0.2,1.8c0.2,0.6,0.4,1.1,0.7,1.5c0.3,0.4,0.7,0.8,1.2,1s1,0.4,1.7,0.4
		c0.9,0,1.6-0.2,2.2-0.7s1-1.2,1.2-2h1.5c-0.2,0.6-0.4,1.1-0.6,1.6c-0.3,0.5-0.6,0.9-1,1.3c-0.4,0.4-0.9,0.6-1.4,0.8
		c-0.5,0.2-1.2,0.3-1.9,0.3c-0.9,0-1.7-0.2-2.3-0.5c-0.7-0.3-1.2-0.8-1.6-1.3c-0.4-0.6-0.7-1.2-0.9-2c-0.2-0.8-0.3-1.6-0.3-2.4
		s0.1-1.7,0.4-2.5c0.2-0.8,0.6-1.4,1-2s1-1,1.6-1.4s1.4-0.5,2.2-0.5c1.5,0,2.8,0.6,3.6,1.7c0.9,1.1,1.3,2.8,1.3,4.9H157.4z
		 M164.7,183.9c0-0.6-0.1-1.1-0.2-1.6c-0.2-0.5-0.4-1-0.7-1.3c-0.3-0.4-0.7-0.7-1.1-0.9c-0.4-0.2-1-0.3-1.5-0.3s-1.1,0.1-1.5,0.3
		c-0.4,0.2-0.8,0.5-1.1,0.9c-0.3,0.4-0.6,0.8-0.7,1.3c-0.2,0.5-0.3,1-0.4,1.6H164.7z"/>
	<path fill="#090F18" d="M169.4,186.9c0.2,1,0.6,1.8,1.1,2.2c0.5,0.4,1.3,0.6,2.3,0.6c0.5,0,0.9-0.1,1.2-0.2
		c0.3-0.1,0.6-0.3,0.9-0.5c0.2-0.2,0.4-0.4,0.5-0.7c0.1-0.3,0.2-0.5,0.2-0.8c0-0.6-0.2-1-0.5-1.3c-0.4-0.3-0.8-0.5-1.3-0.7
		c-0.5-0.2-1.1-0.3-1.7-0.4c-0.6-0.1-1.2-0.3-1.7-0.5c-0.5-0.2-1-0.6-1.3-1c-0.4-0.4-0.5-1-0.5-1.8c0-1,0.3-1.8,1-2.4
		c0.7-0.6,1.7-1,2.9-1c1.2,0,2.2,0.3,3,0.9c0.8,0.6,1.2,1.5,1.4,2.9h-1.3c-0.1-0.9-0.4-1.6-1-1.9c-0.5-0.4-1.2-0.6-2.1-0.6
		c-0.8,0-1.5,0.2-1.9,0.6c-0.4,0.4-0.7,0.9-0.7,1.5c0,0.5,0.2,0.9,0.5,1.2c0.4,0.3,0.8,0.5,1.3,0.7c0.5,0.2,1.1,0.3,1.7,0.5
		c0.6,0.1,1.2,0.3,1.7,0.6c0.5,0.3,1,0.6,1.3,1c0.4,0.4,0.5,1,0.5,1.8c0,0.6-0.1,1.1-0.3,1.5c-0.2,0.4-0.6,0.8-1,1.1
		c-0.4,0.3-0.9,0.5-1.4,0.7c-0.6,0.1-1.2,0.2-1.8,0.2s-1.3-0.1-1.8-0.3c-0.5-0.2-1-0.5-1.3-0.9c-0.4-0.4-0.6-0.8-0.8-1.3
		c-0.2-0.5-0.3-1-0.3-1.6H169.4z"/>
</g>
</svg>
